<svg xmlns="http://www.w3.org/2000/svg" viewBox="0 0 1254 1254" width="1254" height="1254">
  <rect width="1254" height="1254" fill="#090909"/>
  <circle cx="626.97" cy="622.39" r="512.76" fill="none" stroke="#E7DED7" stroke-width="6.51"/>
  <path fill-rule="evenodd" fill="#E7DED7" d="M364.5 370.19L363.45 371.5C363.67 372.57 363.56 372.43 364.5 373.25L376.5 376.11L387.5 381.2L393.5 386.74L397.79 395.5C398.14 397.14 398.75 398.85 398.92 400.5C399.16 402.84 399.19 405.19 399.71 407.5L399.77 728.5L397.78 748.5L395.75 754.5L391.5 760.94C389.66 762.85 387.64 764.18 385.5 765.71L376.5 769.78C372.5 770.77 368.64 771.96 364.5 772.33L363.33 773.5L364.5 775.43L440.5 775.42L441.18 774.5C441.23 773.52 441.43 773.22 440.5 772.47L431.5 770.63L420.5 765.56L414.07 759.5L410.2 751.5C409.4 747.48 408.56 743.57 408.01 739.5C407.39 728.16 407.37 716.86 407.25 705.5L408.2 423.5C408.26 421.79 408.58 420.18 408.72 418.5C409.04 414.62 408.84 408.64 408.93 404.5L409.5 403.37L410.75 405.5L588.2 743.5L634.98 830.5L651 865.5L655.5 866.16L715.5 865.84C716.06 865.12 715.8 864.23 715.36 863.5C713.28 862.57 710.7 862.36 708.5 861.64C706.12 860.87 703.88 859.65 701.5 858.9C697.98 857.05 694.67 855.23 691.5 852.78L683.31 844.5L678.14 836.5C672.39 825.17 666.51 813.84 660.88 802.5C656.37 793.42 651.23 784.6 646.77 775.5C642.64 767.04 637.77 758.97 633.65 750.5C631.66 746.41 629.11 742.58 627.17 738.5C618.95 721.23 609.05 704.73 600.82 687.5C597.58 680.71 593.57 674.18 590.09 667.5C582.82 653.56 575.53 639.66 568.5 625.61L466.5 431.38L435.5 370.53L364.5 370.19ZM733.5 370.35L713.77 411.5C709.64 418.94 706.49 426.87 702.75 434.5C693.97 452.45 685.16 470.36 676.82 488.5C672.82 497.2 667.98 505.67 664.27 514.5C660.7 522.99 655.85 531.04 652.31 539.5C649.88 545.32 646.67 550.77 644.15 556.5C640.16 565.57 635.72 574.5 631.5 583.47C628.17 590.55 624.51 597.44 621.28 604.5C616.35 615.25 610.97 625.73 606.17 636.5C603.05 643.48 600.03 650.96 596.09 657.5L595.05 660.5L601.5 672.44L636.5 645.07L662.5 629.27L695.5 616.28L726.5 608.15C734.53 607.32 742.4 605.41 750.5 605.05L773.5 605.22C778.88 606.4 784.21 607.12 789.5 608.71L790.81 609.5L833.84 742.5L834.02 753.5L832.71 758.5L830.5 762.15L824.12 767.5L816.5 770.72L807.5 772.74L806.97 774.5L807.5 775.29L810.5 775.43L911.5 775.33L912.22 773.5L911.5 772.32L898.5 768.64L887.5 762.75L883.5 759.42L878.5 753.26C876.46 749.77 875.15 746.05 873.31 742.5L825.79 594.5C823.32 588.9 821.54 582.38 819.82 576.5C817.07 567.1 813.72 557.82 810.73 548.5C806.75 536.11 802.34 523.83 798.16 511.5C791.97 493.26 786.6 474.69 780.21 456.5C777.89 449.91 775.93 443.16 773.77 436.5C772.68 433.13 771.25 429.88 770.18 426.5C768.82 422.22 767.88 417.69 766.28 413.5L765.06 406.5L765.1 399.5C765.77 396.44 766.18 393.5 767.17 390.5L770.88 384.5L776.5 380.04L787.5 375.33L797.5 373.02C798.35 372.47 798.36 372.39 798.62 371.5L797.5 370.35L733.5 370.35ZM726.12 407.5L727.5 406.8L734.93 438.5L763.74 525.5C765.36 532.98 768.67 540.15 770.79 547.5C772.84 554.58 775.44 561.47 777.62 568.5C779.17 573.49 780.59 578.55 782.24 583.5C783.18 586.31 786.82 595.18 786.68 597.5C786.24 597.89 777.95 596.35 776.5 596.12L760.5 595.36L739.5 597.12C734.15 597.94 728.76 598.92 723.5 600.1C720.82 600.71 718.22 601.63 715.5 602.09L683.5 612.23L662.5 621.23L640.5 634.2L609.5 657.82L606.5 660L605.92 659.5L622.12 622.5L658.22 545.5L695.19 468.5L726.12 407.5ZM565.5 718.51L510.83 830.5L501.8 844.5L491.5 854.75C489.21 856.2 486.98 857.83 484.5 858.92C483.18 859.51 481.76 859.94 480.5 860.68L469.5 864.04C468.53 864.69 468.89 864.24 468.53 865.5L470.5 866.29L537.5 866.27C538.8 866.11 538.26 866.39 539.15 865.5L538.5 864.16L527.5 859.96C525.63 858.65 523.85 857.38 522.5 855.49L519.6 847.5L519.5 842.16L520.43 835.5L524.35 822.5L569.85 726.5C569.59 723.94 567.65 721.01 566.5 718.69L565.5 718.51Z"/>
</svg>
